<svg width="100%" height="100%" viewBox="0 0 855 1396" version="1.1" xmlns="http://www.w3.org/2000/svg" xmlns:xlink="http://www.w3.org/1999/xlink" xml:space="preserve" xmlns:serif="http://www.serif.com/" style="fill-rule:evenodd;clip-rule:evenodd;stroke-linecap:round;stroke-linejoin:round;stroke-miterlimit:1;"><g><path fill="#20282e" d="M586.756,10.417l-576.339,-0l-0,1375l576.339,-0l-0,-1375Zm137.5,-0l-0,1375l119.494,-0l0,-1375l-119.494,-0Z" style="stroke:#20282e;stroke-width:20.83px;"/><path fill="#20282e" stroke="#20282e" d="M728.422,141.721l-145.833,-0l0,527.87l145.833,-0l0,-527.87Zm-4.166,408.232l-137.5,0l-0,66.667l137.5,-0l-0,-66.667Zm-0,-117.377l-137.5,0l-0,66.667l137.5,-0l-0,-66.667Zm-0,-120.022l-137.5,0l-0,66.667l137.5,-0l-0,-66.667Zm-0,-117.37l-137.5,-0l-0,66.666l137.5,0l-0,-66.666Z"/></g></svg>